# xmcd
#
# Track frame offsets: 
#        150
#        23630
#        41382
#        60852
#        80275
#        104457
#        128095
#        148605
#        171645
#        193045
#        219022
#        244240
#        266610
#        289735
#        309635
#
# Disc length: 4528 seconds
#
# Revision: 1
# Processed by: cddbd v1.5.2PL0 Copyright (c) Steve Scherf et al.
# Submitted via: ExactAudioCopy v0.99pb4
#
DISCID=cf11ae0f
DTITLE=Various Artist - Power Ballads Gold [CD2]
DYEAR=2005
DGENRE=Power Ballad
TTITLE0=Winger - Headed For A Heartbreak
TTITLE1=Warrant - Heaven
TTITLE2=Kix - Don't Close Your Eyes
TTITLE3=Bad English - When I See You Smile
TTITLE4=Tesla - Love Song
TTITLE5=Skid Row - I Remember You
TTITLE6=L.A. Guns - The Ballad Of Jayne
TTITLE7=Slaughter - Fly To The Angels
TTITLE8=Damn Yankees - High Enough
TTITLE9=Queensryche - Silent Lucidity
TTITLE10=Extreme - More Than Words
TTITLE11=Firehouse - Love Of A Lifetime
TTITLE12=Nelson - Only Time Will Tell
TTITLE13=Saigon Kick - Love Is On The Way
TTITLE14=Meat Loaf - I'd Do Anything For Love (But I Won't Do That)
EXTD=
EXTT0=
EXTT1=
EXTT2=
EXTT3=
EXTT4=
EXTT5=
EXTT6=
EXTT7=
EXTT8=
EXTT9=
EXTT10=
EXTT11=
EXTT12=
EXTT13=
EXTT14=
PLAYORDER=
